<?xml version="1.0" encoding="UTF-8"?>
<svg id="Capa_1" xmlns="http://www.w3.org/2000/svg" version="1.1" viewBox="0 0 50 50">
  <defs>
    <style>
      .bg-red {
        fill: #e30613;
      }
      .text-white {
        fill: #ffffff;
      }
    </style>
  </defs>
  <!-- Círculo rojo de fondo -->
  <circle class="bg-red" cx="25" cy="25" r="25"/>
  
  <!-- Letras blancas FC -->
  <path class="text-white" d="M4.78,30.46c0,.23-.19.42-.41.42H1.46c-.23,0-.42-.19-.42-.42v-12.19c0-.23.19-.42.42-.42h2.9c.23,0,.41.19.41.42v12.19ZM10.49,33.78c0,.23-.18.41-.41.41h-3.32c-.23,0-.42-.18-.42-.41V14.95c0-.23.18-.41.42-.41h3.32c.23,0,.41.19.41.42v18.82ZM24.31,14.27h-7.16v8.35h5.37v3.58h-5.37v11.92h-3.58V14.27c0-1.98,1.6-3.58,3.58-3.58h7.16v3.58ZM36.83,14.27h-7.16v20.26h7.16v3.58h-7.16c-1.98,0-3.58-1.6-3.58-3.58V14.27c0-1.98,1.6-3.58,3.58-3.58h7.16v3.58ZM43.71,33.78c0,.23-.19.41-.42.41h-3.32c-.23,0-.41-.18-.41-.41V14.95c0-.23.18-.41.41-.41h3.32c.23,0,.42.19.42.42v18.82ZM48.88,30.75c-.08.08-.18.12-.29.12h-2.9c-.23,0-.41-.19-.41-.42v-12.19c0-.11.04-.21.12-.29.08-.08.18-.12.29-.12h2.9c.23,0,.42.18.42.41v12.19c0,.11-.04.22-.12.29Z"/>
</svg>
